<svg xmlns="http://www.w3.org/2000/svg" width="25.391" height="44.735" viewBox="0 0 25.391 44.735">
  <path id="facebook" d="M16.184,44.735H9.02a2.172,2.172,0,0,1-2.17-2.17V26.406H2.67A2.173,2.173,0,0,1,.5,24.236V17.312a2.172,2.172,0,0,1,2.17-2.17H6.85V11.675A11.806,11.806,0,0,1,9.971,3.217,11.244,11.244,0,0,1,18.261,0l5.464.009a2.173,2.173,0,0,1,2.166,2.17V8.607a2.172,2.172,0,0,1-2.169,2.17H20.043c-1.122,0-1.408.225-1.469.294-.1.114-.22.438-.22,1.33v2.739h5.091a2.206,2.206,0,0,1,1.074.273,2.178,2.178,0,0,1,1.116,1.9l0,6.924a2.172,2.172,0,0,1-2.17,2.169H18.354V42.565a2.173,2.173,0,0,1-2.17,2.17ZM9.472,42.112h6.259V25.232a1.451,1.451,0,0,1,1.449-1.449h5.83l0-6.019H17.18a1.45,1.45,0,0,1-1.448-1.449V12.4a4.466,4.466,0,0,1,.877-3.066,4.445,4.445,0,0,1,3.434-1.181h3.226V2.63l-5.009-.008c-5.419,0-8.787,3.469-8.787,9.053v4.641a1.45,1.45,0,0,1-1.448,1.449h-4.9v6.019h4.9a1.45,1.45,0,0,1,1.448,1.449ZM23.72,2.631h0Zm0,0" transform="translate(-0.5 0)"/>
</svg>
