<?xml version="1.0" encoding="UTF-8"?>
<svg xmlns="http://www.w3.org/2000/svg" xmlns:xlink="http://www.w3.org/1999/xlink" width="15pt" height="15pt" viewBox="0 0 15 15" version="1.1">
<g id="surface1">
<path style=" stroke:none;fill-rule:nonzero;fill:rgb(100%,100%,100%);fill-opacity:1;" d="M 5.289062 15 L 2.886719 15 C 2.484375 15 2.160156 14.671875 2.160156 14.273438 L 2.160156 8.855469 L 0.757812 8.855469 C 0.355469 8.855469 0.0273438 8.527344 0.0273438 8.125 L 0.0273438 5.804688 C 0.0273438 5.402344 0.355469 5.078125 0.757812 5.078125 L 2.160156 5.078125 L 2.160156 3.914062 C 2.160156 2.761719 2.519531 1.78125 3.203125 1.078125 C 3.894531 0.371094 4.855469 0 5.984375 0 L 7.816406 0.00390625 C 8.21875 0.00390625 8.542969 0.328125 8.542969 0.730469 L 8.542969 2.886719 C 8.542969 3.289062 8.214844 3.613281 7.816406 3.613281 L 6.582031 3.613281 C 6.207031 3.613281 6.109375 3.691406 6.089844 3.710938 C 6.054688 3.75 6.015625 3.859375 6.015625 4.160156 L 6.015625 5.078125 L 7.722656 5.078125 C 7.851562 5.078125 7.976562 5.109375 8.082031 5.167969 C 8.3125 5.296875 8.457031 5.542969 8.457031 5.804688 L 8.457031 8.125 C 8.457031 8.527344 8.128906 8.855469 7.730469 8.855469 L 6.015625 8.855469 L 6.015625 14.273438 C 6.015625 14.671875 5.6875 15 5.289062 15 Z M 3.039062 14.121094 L 5.136719 14.121094 L 5.136719 8.460938 C 5.136719 8.191406 5.355469 7.976562 5.621094 7.976562 L 7.578125 7.976562 L 7.578125 5.957031 L 5.621094 5.957031 C 5.355469 5.957031 5.136719 5.738281 5.136719 5.472656 L 5.136719 4.160156 C 5.136719 3.816406 5.171875 3.425781 5.429688 3.132812 C 5.742188 2.777344 6.238281 2.734375 6.582031 2.734375 L 7.664062 2.734375 L 7.664062 0.882812 L 5.984375 0.878906 C 4.167969 0.878906 3.039062 2.042969 3.039062 3.914062 L 3.039062 5.472656 C 3.039062 5.738281 2.820312 5.957031 2.550781 5.957031 L 0.910156 5.957031 L 0.910156 7.976562 L 2.550781 7.976562 C 2.820312 7.976562 3.039062 8.191406 3.039062 8.460938 Z M 7.816406 0.882812 Z M 7.816406 0.882812 "/>
</g>
</svg>
