<svg xmlns="http://www.w3.org/2000/svg" width="36.982" height="36.982" viewBox="0 0 36.982 36.982">
  <g id="instagram" transform="translate(0)">
    <path id="Trazado_10" data-name="Trazado 10" d="M20.491,2c-5.022,0-5.651.022-7.624.111a13.6,13.6,0,0,0-4.488.86A9.441,9.441,0,0,0,2.971,8.379a13.6,13.6,0,0,0-.86,4.488C2.02,14.84,2,15.469,2,20.491s.02,5.651.111,7.624a13.6,13.6,0,0,0,.86,4.488,9.441,9.441,0,0,0,5.409,5.409,13.6,13.6,0,0,0,4.488.86c1.973.089,2.6.111,7.624.111s5.651-.022,7.624-.111a13.6,13.6,0,0,0,4.488-.86A9.441,9.441,0,0,0,38.011,32.6a13.6,13.6,0,0,0,.86-4.488c.089-1.973.111-2.6.111-7.624s-.022-5.651-.111-7.624a13.6,13.6,0,0,0-.86-4.488A9.441,9.441,0,0,0,32.6,2.971a13.6,13.6,0,0,0-4.488-.86C26.142,2.022,25.513,2,20.491,2m0,3.332c4.937,0,5.521.018,7.47.107a10.269,10.269,0,0,1,3.436.636,6.121,6.121,0,0,1,3.51,3.51,10.267,10.267,0,0,1,.636,3.434c.089,1.951.107,2.533.107,7.472s-.018,5.521-.107,7.47a10.318,10.318,0,0,1-.636,3.436,6.121,6.121,0,0,1-3.51,3.51,10.266,10.266,0,0,1-3.434.636c-1.949.089-2.533.107-7.472.107s-5.523-.018-7.47-.107a10.318,10.318,0,0,1-3.436-.636,5.728,5.728,0,0,1-2.126-1.383A5.729,5.729,0,0,1,6.075,31.4a10.218,10.218,0,0,1-.636-3.434c-.089-1.951-.107-2.533-.107-7.472s.018-5.521.107-7.47a10.269,10.269,0,0,1,.636-3.436A5.778,5.778,0,0,1,7.459,7.459,5.755,5.755,0,0,1,9.585,6.075a10.218,10.218,0,0,1,3.434-.636c1.951-.089,2.533-.107,7.472-.107m0,21.322a6.163,6.163,0,1,1,6.163-6.163,6.163,6.163,0,0,1-6.163,6.163m0-15.658a9.5,9.5,0,1,0,9.5,9.5,9.5,9.5,0,0,0-9.5-9.5M32.58,10.62A2.219,2.219,0,1,1,30.361,8.4,2.219,2.219,0,0,1,32.58,10.62" transform="translate(-2 -2)" fill-rule="evenodd"/>
  </g>
</svg>
