<?xml version="1.0" encoding="UTF-8"?>
<svg xmlns="http://www.w3.org/2000/svg" xmlns:xlink="http://www.w3.org/1999/xlink" width="15pt" height="15pt" viewBox="0 0 15 15" version="1.1">
<g id="surface1">
<path style=" stroke:none;fill-rule:nonzero;fill:rgb(100%,100%,100%);fill-opacity:1;" d="M 14.984375 4.410156 C 14.949219 3.613281 14.820312 3.066406 14.636719 2.589844 C 14.445312 2.085938 14.152344 1.636719 13.769531 1.261719 C 13.394531 0.878906 12.941406 0.582031 12.441406 0.394531 C 11.964844 0.210938 11.417969 0.0820312 10.621094 0.046875 C 9.820312 0.0078125 9.5625 0 7.527344 0 C 5.492188 0 5.238281 0.0078125 4.4375 0.0429688 C 3.640625 0.078125 3.089844 0.207031 2.617188 0.394531 C 2.113281 0.582031 1.660156 0.875 1.285156 1.261719 C 0.90625 1.636719 0.609375 2.089844 0.421875 2.585938 C 0.238281 3.066406 0.109375 3.609375 0.0742188 4.40625 C 0.0351562 5.210938 0.0273438 5.464844 0.0273438 7.5 C 0.0273438 9.539062 0.0351562 9.792969 0.0703125 10.59375 C 0.105469 11.390625 0.234375 11.9375 0.417969 12.414062 C 0.609375 12.917969 0.90625 13.367188 1.285156 13.742188 C 1.660156 14.125 2.117188 14.417969 2.613281 14.605469 C 3.089844 14.792969 3.636719 14.921875 4.433594 14.957031 C 5.234375 14.992188 5.488281 15 7.523438 15 C 9.5625 15 9.816406 14.992188 10.617188 14.957031 C 11.414062 14.921875 11.960938 14.792969 12.4375 14.605469 C 13.445312 14.21875 14.242188 13.421875 14.628906 12.414062 C 14.816406 11.933594 14.945312 11.390625 14.980469 10.59375 C 15.015625 9.792969 15.023438 9.539062 15.023438 7.5 C 15.023438 5.464844 15.019531 5.210938 14.984375 4.410156 Z M 13.632812 10.535156 C 13.601562 11.265625 13.480469 11.664062 13.375 11.925781 C 13.125 12.578125 12.605469 13.097656 11.953125 13.351562 C 11.6875 13.453125 11.289062 13.574219 10.5625 13.609375 C 9.769531 13.644531 9.53125 13.652344 7.53125 13.652344 C 5.53125 13.652344 5.289062 13.644531 4.5 13.609375 C 3.769531 13.574219 3.371094 13.453125 3.109375 13.351562 C 2.785156 13.230469 2.488281 13.039062 2.246094 12.789062 C 2 12.546875 1.808594 12.253906 1.6875 11.929688 C 1.585938 11.664062 1.460938 11.265625 1.429688 10.539062 C 1.394531 9.746094 1.386719 9.507812 1.386719 7.507812 C 1.386719 5.507812 1.394531 5.265625 1.429688 4.476562 C 1.460938 3.746094 1.585938 3.347656 1.6875 3.085938 C 1.808594 2.761719 2 2.464844 2.25 2.222656 C 2.492188 1.976562 2.785156 1.785156 3.113281 1.664062 C 3.375 1.5625 3.773438 1.4375 4.503906 1.40625 C 5.296875 1.371094 5.53125 1.363281 7.535156 1.363281 C 9.539062 1.363281 9.773438 1.371094 10.5625 1.40625 C 11.296875 1.4375 11.691406 1.5625 11.957031 1.664062 C 12.28125 1.785156 12.578125 1.976562 12.816406 2.222656 C 13.066406 2.46875 13.257812 2.761719 13.375 3.085938 C 13.480469 3.347656 13.601562 3.746094 13.632812 4.476562 C 13.667969 5.269531 13.679688 5.507812 13.679688 7.507812 C 13.679688 9.507812 13.667969 9.742188 13.632812 10.535156 Z M 13.632812 10.535156 "/>
<path style=" stroke:none;fill-rule:nonzero;fill:rgb(100%,100%,100%);fill-opacity:1;" d="M 7.527344 3.648438 C 5.402344 3.648438 3.675781 5.375 3.675781 7.5 C 3.675781 9.628906 5.402344 11.355469 7.527344 11.355469 C 9.65625 11.355469 11.382812 9.628906 11.382812 7.5 C 11.382812 5.375 9.65625 3.648438 7.527344 3.648438 Z M 7.527344 10 C 6.148438 10 5.027344 8.882812 5.027344 7.5 C 5.027344 6.121094 6.148438 5 7.527344 5 C 8.90625 5 10.027344 6.121094 10.027344 7.5 C 10.027344 8.882812 8.90625 10 7.527344 10 Z M 7.527344 10 "/>
<path style=" stroke:none;fill-rule:nonzero;fill:rgb(100%,100%,100%);fill-opacity:1;" d="M 12.433594 3.496094 C 12.433594 3.992188 12.03125 4.394531 11.535156 4.394531 C 11.035156 4.394531 10.632812 3.992188 10.632812 3.496094 C 10.632812 3 11.035156 2.597656 11.535156 2.597656 C 12.03125 2.597656 12.433594 3 12.433594 3.496094 Z M 12.433594 3.496094 "/>
</g>
</svg>
