<svg xmlns="http://www.w3.org/2000/svg" width="46" height="32" viewBox="0 0 46 32">
  <g id="MenuHamburguesa" transform="translate(-33.733 -158.2)">
    <path id="Trazado_9" data-name="Trazado 9" d="M54.5,158.2a1.777,1.777,0,0,0,0,3.554H96.964a1.777,1.777,0,0,0,0-3.554Zm-1.769,16a1.774,1.774,0,0,1,1.769-1.779H96.964a1.778,1.778,0,0,1,0,3.555H54.5A1.773,1.773,0,0,1,52.733,174.2Zm0,14.221a1.774,1.774,0,0,1,1.769-1.778H96.964a1.778,1.778,0,0,1,0,3.556H54.5A1.774,1.774,0,0,1,52.733,188.422Z" transform="translate(-19 0)" fill="#fff" fill-rule="evenodd"/>
  </g>
</svg>
