<svg xmlns="http://www.w3.org/2000/svg" width="36.999" height="36.986" viewBox="0 0 36.999 36.986">
  <g id="phone" transform="translate(0 -0.913)">
    <path id="Trazado_11" data-name="Trazado 11" d="M104.6,109.079h-.242C76.4,107.472,72.433,83.887,71.878,76.688A4.268,4.268,0,0,1,75.8,72.094h7.838a2.845,2.845,0,0,1,2.646,1.792l2.162,5.32a2.845,2.845,0,0,1-.626,3.073l-3.03,3.058A13.329,13.329,0,0,0,95.578,96.149l3.087-3.058a2.845,2.845,0,0,1,3.087-.583l5.363,2.148a2.845,2.845,0,0,1,1.75,2.646v7.511A4.268,4.268,0,0,1,104.6,109.079ZM76.146,74.939a1.423,1.423,0,0,0-1.423,1.423v.114c.654,8.421,4.851,28.337,29.788,29.759a1.423,1.423,0,0,0,1.508-1.337V97.3l-5.363-2.148-4.083,4.054-.683-.085C83.515,97.571,81.836,85.2,81.836,85.067l-.085-.683,4.04-4.083-2.134-5.363Z" transform="translate(-71.865 -71.181)"/>
  </g>
</svg>
