<?xml version="1.0" encoding="UTF-8"?>
<svg xmlns="http://www.w3.org/2000/svg" xmlns:xlink="http://www.w3.org/1999/xlink" width="15pt" height="15pt" viewBox="0 0 15 15" version="1.1">
<g id="surface1">
<path style=" stroke:none;fill-rule:nonzero;fill:rgb(100%,100%,100%);fill-opacity:1;" d="M 10.78125 15 C 10.296875 15 9.816406 14.914062 9.347656 14.742188 C 7.277344 13.992188 5.359375 12.769531 3.796875 11.203125 C 2.230469 9.640625 1.007812 7.722656 0.257812 5.652344 C 0.015625 4.988281 -0.0546875 4.300781 0.0429688 3.613281 C 0.140625 2.96875 0.390625 2.34375 0.765625 1.804688 C 1.148438 1.261719 1.652344 0.808594 2.230469 0.5 C 2.847656 0.167969 3.519531 0 4.230469 0 C 4.453125 0 4.644531 0.15625 4.6875 0.371094 L 5.425781 3.804688 C 5.457031 3.960938 5.410156 4.121094 5.296875 4.234375 L 4.039062 5.492188 C 5.226562 7.847656 7.152344 9.773438 9.507812 10.957031 L 10.765625 9.703125 C 10.878906 9.589844 11.039062 9.542969 11.195312 9.574219 L 14.628906 10.3125 C 14.84375 10.355469 15 10.546875 15 10.769531 C 15 11.480469 14.832031 12.152344 14.5 12.769531 C 14.191406 13.347656 13.738281 13.851562 13.195312 14.234375 C 12.65625 14.609375 12.03125 14.859375 11.386719 14.957031 C 11.183594 14.984375 10.980469 15 10.78125 15 Z M 3.855469 0.957031 C 2.917969 1.0625 2.085938 1.550781 1.535156 2.339844 C 0.914062 3.226562 0.769531 4.320312 1.136719 5.332031 C 2.582031 9.308594 5.691406 12.417969 9.667969 13.863281 C 10.679688 14.230469 11.773438 14.085938 12.660156 13.464844 C 13.449219 12.914062 13.9375 12.082031 14.042969 11.144531 L 11.25 10.546875 L 9.9375 11.859375 C 9.796875 11.996094 9.585938 12.035156 9.40625 11.949219 C 6.617188 10.640625 4.359375 8.382812 3.050781 5.59375 C 2.964844 5.414062 3.003906 5.203125 3.140625 5.0625 L 4.453125 3.75 Z M 3.855469 0.957031 "/>
</g>
</svg>
