<svg xmlns="http://www.w3.org/2000/svg" width="525.457" height="147.042" viewBox="0 0 525.457 147.042">
  <g id="Suplementos_ZN_chico" data-name="Suplementos ZN chico" transform="translate(-87.849 -337.634)" style="mix-blend-mode: screen;isolation: isolate">
    <g id="Capa_2_copia" transform="translate(87.849 368.776)">
      <text id="SUPLEMENTOS" transform="translate(0 69)" fill="#fff" font-size="71" font-family="AgencyFB-Bold, Agency FB" font-weight="700"><tspan x="0" y="0">SUPLEMENTOS</tspan></text>
    </g>
    <g id="Capa_3" transform="translate(465.938 337.634)">
      <g id="Grupo_16" data-name="Grupo 16">
        <g id="XMLID_2_">
          <g id="Grupo_15" data-name="Grupo 15">
            <path id="Trazado_15" data-name="Trazado 15" d="M527.689,349.63a71.756,71.756,0,0,1,28.2,44.486c7.706,39.741-18.419,78.69-58.382,87a73.04,73.04,0,0,1-52.3-8.592l4.99-7.426a64.14,64.14,0,0,0,45.617,7.344c35.136-7.309,58.125-41.572,51.341-76.51a63.1,63.1,0,0,0-24.47-38.867Z" transform="translate(-409.869 -335.645)" fill="#fff"/>
            <path id="Trazado_16" data-name="Trazado 16" d="M526.9,347.795l-4.978,7.426h-.012a64.162,64.162,0,0,0-45.628-7.344c-35.136,7.309-58.125,41.571-51.341,76.51a63.111,63.111,0,0,0,24.481,38.867l-4.978,7.426a71.725,71.725,0,0,1-28.2-44.486c-7.706-39.741,18.419-78.69,58.37-86.99A72.989,72.989,0,0,1,526.9,347.795Z" transform="translate(-414.894 -337.634)" fill="#fff"/>
          </g>
        </g>
      </g>
      <g id="Grupo_18" data-name="Grupo 18" transform="translate(16.234 39.026)">
        <g id="XMLID_1_">
          <g id="Grupo_17" data-name="Grupo 17">
            <path id="Trazado_17" data-name="Trazado 17" d="M541.818,430.18v3.509h-10.2l-29.354-30.38V433.63H428.82l39-40.371h-24.54l14.56-15.062v-.082h40.651l29.249,30.275V385.717l14.106-14.607v59.07Zm-53.556-10.585V393.248l-25.309,26.207.128.14Z" transform="translate(-428.82 -371.11)" fill="#fff"/>
          </g>
        </g>
      </g>
    </g>
  </g>
</svg>
