<svg id="whatsapp" xmlns="http://www.w3.org/2000/svg" xmlns:xlink="http://www.w3.org/1999/xlink" width="69.94" height="70.214" viewBox="0 0 69.94 70.214">
  <defs>
    <linearGradient id="linear-gradient" x1="0.5" y1="1" x2="0.5" gradientUnits="objectBoundingBox">
      <stop offset="0" stop-color="#20b038"/>
      <stop offset="1" stop-color="#60d66a"/>
    </linearGradient>
  </defs>
  <path id="Trazado_5" data-name="Trazado 5" d="M.889,67.13l4.687-17.1A33.032,33.032,0,0,1,57.56,10.189,33.03,33.03,0,0,1,34.188,66.56h-.016a33.042,33.042,0,0,1-15.787-4.022Zm18.32-10.577,1,.6a27.521,27.521,0,0,0,13.966,3.832h.016A27.441,27.441,0,1,0,10.928,48.128l.649,1.045L8.806,59.292l10.4-2.739Z" transform="translate(0.832 1.445)" fill="rgba(0,0,0,0.24)"/>
  <path id="Trazado_6" data-name="Trazado 6" d="M17.3,78.592l4.472-16.31A31.477,31.477,0,1,1,49.043,78.045h-.016a31.494,31.494,0,0,1-15.044-3.831L17.3,78.593Z" transform="translate(-14.079 -11.783)" fill="url(#linear-gradient)"/>
  <path id="Trazado_7" data-name="Trazado 7" d="M22.75,89.474l4.629-16.889A32.619,32.619,0,1,1,55.636,88.911H55.62a32.634,32.634,0,0,1-15.591-3.972L22.75,89.475ZM40.843,79.028l.985.594A27.177,27.177,0,0,0,55.62,83.407h.016a27.1,27.1,0,1,0-22.972-12.7l.641,1.032-2.737,9.992Z" transform="translate(-20.673 -21.524)" fill="#fff"/>
  <path id="Trazado_8" data-name="Trazado 8" d="M209.966,217.1c-.61-1.361-1.251-1.392-1.83-1.408-.469-.016-1.016-.016-1.564-.016A3,3,0,0,0,204.4,216.7a9.118,9.118,0,0,0-2.846,6.8c0,4,2.924,7.881,3.331,8.428s5.645,9.039,13.918,12.307c6.881,2.721,8.288,2.174,9.774,2.033,1.5-.141,4.817-1.97,5.5-3.878a6.864,6.864,0,0,0,.469-3.878c-.2-.344-.75-.547-1.564-.954s-4.816-2.377-5.567-2.658-1.3-.407-1.83.407c-.548.813-2.111,2.643-2.58,3.19s-.954.61-1.767.2a22.141,22.141,0,0,1-6.552-4.05A24.375,24.375,0,0,1,210.154,229c-.469-.813-.047-1.251.36-1.658.36-.36.813-.954,1.22-1.423a5.231,5.231,0,0,0,.813-1.361,1.508,1.508,0,0,0-.063-1.423C212.28,222.732,210.685,218.713,209.966,217.1Z" transform="translate(-183.15 -195.987)" fill="#fff"/>
  <rect id="Rectángulo_3" data-name="Rectángulo 3" width="69.94" height="70.213" fill="rgba(0,0,0,0)"/>
</svg>
